<mxfile>
    <diagram id="sJNl7T-JgA-OTRm8y5UO" name="Page-1">
        <mxGraphModel dx="1405" dy="798" grid="1" gridSize="10" guides="1" tooltips="1" connect="1" arrows="1" fold="1" page="1" pageScale="1" pageWidth="850" pageHeight="1100" math="0" shadow="0">
            <root>
                <mxCell id="0"/>
                <mxCell id="1" parent="0"/>
                <mxCell id="gSWYZH3rOPVy1YwnoG2c-16" style="edgeStyle=orthogonalEdgeStyle;rounded=0;orthogonalLoop=1;jettySize=auto;html=1;entryX=0;entryY=0.5;entryDx=0;entryDy=0;" parent="1" target="gSWYZH3rOPVy1YwnoG2c-15" edge="1">
                    <mxGeometry relative="1" as="geometry">
                        <mxPoint x="40" y="80" as="sourcePoint"/>
                    </mxGeometry>
                </mxCell>
                <mxCell id="gSWYZH3rOPVy1YwnoG2c-14" value="&lt;div&gt;VM Start&lt;/div&gt;" style="rounded=0;whiteSpace=wrap;html=1;" parent="1" vertex="1">
                    <mxGeometry x="20" y="50" width="120" height="60" as="geometry"/>
                </mxCell>
                <mxCell id="gSWYZH3rOPVy1YwnoG2c-31" style="edgeStyle=orthogonalEdgeStyle;rounded=0;orthogonalLoop=1;jettySize=auto;html=1;entryX=0.5;entryY=0;entryDx=0;entryDy=0;" parent="1" source="gSWYZH3rOPVy1YwnoG2c-15" target="gSWYZH3rOPVy1YwnoG2c-30" edge="1">
                    <mxGeometry relative="1" as="geometry"/>
                </mxCell>
                <mxCell id="gSWYZH3rOPVy1YwnoG2c-51" style="edgeStyle=orthogonalEdgeStyle;rounded=0;orthogonalLoop=1;jettySize=auto;html=1;" parent="1" source="gSWYZH3rOPVy1YwnoG2c-15" target="gSWYZH3rOPVy1YwnoG2c-47" edge="1">
                    <mxGeometry relative="1" as="geometry"/>
                </mxCell>
                <mxCell id="gSWYZH3rOPVy1YwnoG2c-15" value="Parcing" style="rounded=0;whiteSpace=wrap;html=1;" parent="1" vertex="1">
                    <mxGeometry x="240" y="50" width="120" height="60" as="geometry"/>
                </mxCell>
                <mxCell id="gSWYZH3rOPVy1YwnoG2c-30" value="get_some params" style="rounded=0;whiteSpace=wrap;html=1;" parent="1" vertex="1">
                    <mxGeometry x="240" y="160" width="120" height="60" as="geometry"/>
                </mxCell>
                <mxCell id="gSWYZH3rOPVy1YwnoG2c-40" style="edgeStyle=orthogonalEdgeStyle;rounded=0;orthogonalLoop=1;jettySize=auto;html=1;startArrow=none;" parent="1" source="gSWYZH3rOPVy1YwnoG2c-45" target="gSWYZH3rOPVy1YwnoG2c-42" edge="1">
                    <mxGeometry relative="1" as="geometry">
                        <mxPoint x="520" y="110" as="sourcePoint"/>
                    </mxGeometry>
                </mxCell>
                <mxCell id="gSWYZH3rOPVy1YwnoG2c-42" value="&lt;div&gt;WRITE asm&lt;/div&gt;" style="rounded=0;whiteSpace=wrap;html=1;" parent="1" vertex="1">
                    <mxGeometry x="460" y="260" width="120" height="60" as="geometry"/>
                </mxCell>
                <mxCell id="gSWYZH3rOPVy1YwnoG2c-49" style="edgeStyle=orthogonalEdgeStyle;rounded=0;orthogonalLoop=1;jettySize=auto;html=1;entryX=0.5;entryY=0;entryDx=0;entryDy=0;" parent="1" source="gSWYZH3rOPVy1YwnoG2c-47" target="gSWYZH3rOPVy1YwnoG2c-45" edge="1">
                    <mxGeometry relative="1" as="geometry"/>
                </mxCell>
                <mxCell id="gSWYZH3rOPVy1YwnoG2c-61" style="edgeStyle=orthogonalEdgeStyle;rounded=0;orthogonalLoop=1;jettySize=auto;html=1;entryX=0;entryY=0.5;entryDx=0;entryDy=0;" parent="1" source="gSWYZH3rOPVy1YwnoG2c-47" target="gSWYZH3rOPVy1YwnoG2c-56" edge="1">
                    <mxGeometry relative="1" as="geometry"/>
                </mxCell>
                <mxCell id="gSWYZH3rOPVy1YwnoG2c-47" value="&lt;div&gt;verif asm&lt;/div&gt;" style="rounded=0;whiteSpace=wrap;html=1;" parent="1" vertex="1">
                    <mxGeometry x="460" y="50" width="120" height="60" as="geometry"/>
                </mxCell>
                <mxCell id="gSWYZH3rOPVy1YwnoG2c-45" value="LOAD asm" style="rounded=0;whiteSpace=wrap;html=1;" parent="1" vertex="1">
                    <mxGeometry x="460" y="160" width="120" height="60" as="geometry"/>
                </mxCell>
                <mxCell id="gSWYZH3rOPVy1YwnoG2c-62" style="edgeStyle=orthogonalEdgeStyle;rounded=0;orthogonalLoop=1;jettySize=auto;html=1;" parent="1" source="gSWYZH3rOPVy1YwnoG2c-56" target="gSWYZH3rOPVy1YwnoG2c-58" edge="1">
                    <mxGeometry relative="1" as="geometry"/>
                </mxCell>
                <mxCell id="gSWYZH3rOPVy1YwnoG2c-64" style="edgeStyle=orthogonalEdgeStyle;rounded=0;orthogonalLoop=1;jettySize=auto;html=1;entryX=0.5;entryY=0;entryDx=0;entryDy=0;" parent="1" source="gSWYZH3rOPVy1YwnoG2c-56" target="gSWYZH3rOPVy1YwnoG2c-60" edge="1">
                    <mxGeometry relative="1" as="geometry"/>
                </mxCell>
                <mxCell id="gSWYZH3rOPVy1YwnoG2c-56" value="VM initialisation" style="rounded=0;whiteSpace=wrap;html=1;" parent="1" vertex="1">
                    <mxGeometry x="660" y="50" width="120" height="60" as="geometry"/>
                </mxCell>
                <mxCell id="gSWYZH3rOPVy1YwnoG2c-57" style="edgeStyle=orthogonalEdgeStyle;rounded=0;orthogonalLoop=1;jettySize=auto;html=1;entryX=0.5;entryY=0;entryDx=0;entryDy=0;" parent="1" source="gSWYZH3rOPVy1YwnoG2c-58" target="gSWYZH3rOPVy1YwnoG2c-59" edge="1">
                    <mxGeometry relative="1" as="geometry"/>
                </mxCell>
                <mxCell id="gSWYZH3rOPVy1YwnoG2c-58" value="init champion" style="rounded=0;whiteSpace=wrap;html=1;" parent="1" vertex="1">
                    <mxGeometry x="820" y="50" width="120" height="60" as="geometry"/>
                </mxCell>
                <mxCell id="gSWYZH3rOPVy1YwnoG2c-59" value="&lt;div&gt;init process&lt;/div&gt;" style="rounded=0;whiteSpace=wrap;html=1;" parent="1" vertex="1">
                    <mxGeometry x="820" y="160" width="120" height="60" as="geometry"/>
                </mxCell>
                <mxCell id="gSWYZH3rOPVy1YwnoG2c-60" value="&lt;div&gt;init params&lt;/div&gt;" style="rounded=0;whiteSpace=wrap;html=1;" parent="1" vertex="1">
                    <mxGeometry x="660" y="160" width="120" height="60" as="geometry"/>
                </mxCell>
                <mxCell id="gSWYZH3rOPVy1YwnoG2c-74" style="edgeStyle=orthogonalEdgeStyle;rounded=0;orthogonalLoop=1;jettySize=auto;html=1;" parent="1" source="gSWYZH3rOPVy1YwnoG2c-72" target="gSWYZH3rOPVy1YwnoG2c-73" edge="1">
                    <mxGeometry relative="1" as="geometry"/>
                </mxCell>
                <mxCell id="gSWYZH3rOPVy1YwnoG2c-72" value="&lt;div&gt;VM Loop&lt;/div&gt;" style="rounded=0;whiteSpace=wrap;html=1;" parent="1" vertex="1">
                    <mxGeometry x="20" y="380" width="120" height="60" as="geometry"/>
                </mxCell>
                <mxCell id="gSWYZH3rOPVy1YwnoG2c-76" value="if operation" style="edgeStyle=orthogonalEdgeStyle;rounded=0;orthogonalLoop=1;jettySize=auto;html=1;entryX=0;entryY=0.5;entryDx=0;entryDy=0;" parent="1" source="gSWYZH3rOPVy1YwnoG2c-73" target="gSWYZH3rOPVy1YwnoG2c-75" edge="1">
                    <mxGeometry relative="1" as="geometry"/>
                </mxCell>
                <mxCell id="gSWYZH3rOPVy1YwnoG2c-78" value="if free" style="edgeStyle=orthogonalEdgeStyle;rounded=0;orthogonalLoop=1;jettySize=auto;html=1;entryX=0.5;entryY=0;entryDx=0;entryDy=0;" parent="1" source="gSWYZH3rOPVy1YwnoG2c-73" target="gSWYZH3rOPVy1YwnoG2c-77" edge="1">
                    <mxGeometry relative="1" as="geometry"/>
                </mxCell>
                <mxCell id="gSWYZH3rOPVy1YwnoG2c-73" value="check all process" style="rounded=0;whiteSpace=wrap;html=1;" parent="1" vertex="1">
                    <mxGeometry x="240" y="380" width="120" height="60" as="geometry"/>
                </mxCell>
                <mxCell id="gSWYZH3rOPVy1YwnoG2c-75" value="+1 on current iteration" style="rounded=0;whiteSpace=wrap;html=1;" parent="1" vertex="1">
                    <mxGeometry x="460" y="380" width="120" height="60" as="geometry"/>
                </mxCell>
                <mxCell id="gSWYZH3rOPVy1YwnoG2c-77" value="exec instrcut + ask to pol" style="rounded=0;whiteSpace=wrap;html=1;" parent="1" vertex="1">
                    <mxGeometry x="240" y="490" width="120" height="60" as="geometry"/>
                </mxCell>
            </root>
        </mxGraphModel>
    </diagram>
</mxfile>